<svg xmlns="http://www.w3.org/2000/svg" viewBox="0 0 133.11 28.39"><defs><style>.a{fill:#9a9aa0;}</style></defs><title>c5100%</title><path class="a" d="M2.44,12.42a6.68,6.68,0,0,1-2.21-1l1-2.16a6.88,6.88,0,0,0,1.9.94,7.27,7.27,0,0,0,2.2.35,3.52,3.52,0,0,0,1.8-.36,1.12,1.12,0,0,0,.59-1,.92.92,0,0,0-.35-.73A2.38,2.38,0,0,0,6.46,8Q5.92,7.81,5,7.6a20.81,20.81,0,0,1-2.32-.68A3.76,3.76,0,0,1,1.12,5.84a2.89,2.89,0,0,1-.64-2,3.47,3.47,0,0,1,.58-2A4,4,0,0,1,2.82.51,7.27,7.27,0,0,1,5.7,0,9.45,9.45,0,0,1,8,.28a6.76,6.76,0,0,1,2,.82L9.12,3.28a6.89,6.89,0,0,0-3.43-1,3.19,3.19,0,0,0-1.78.39,1.18,1.18,0,0,0-.58,1A1,1,0,0,0,4,4.67a11.06,11.06,0,0,0,2,.61A19.82,19.82,0,0,1,8.34,6,3.84,3.84,0,0,1,9.89,7a2.87,2.87,0,0,1,.65,2,3.37,3.37,0,0,1-.6,1.94,3.92,3.92,0,0,1-1.78,1.39,7.27,7.27,0,0,1-2.88.51A10,10,0,0,1,2.44,12.42Z"/><path class="a" d="M11.17.21H14v12.4H11.17Z"/><path class="a" d="M18.22,2.55h-4V.21h10.8V2.55h-4V12.61H18.22Z"/><path class="a" d="M32.82,10H27.06L26,12.61H23L28.55.21h2.83l5.55,12.4h-3Zm-.91-2.18L30,3,28,7.77Z"/><path class="a" d="M3.29,27.57A6.09,6.09,0,0,1,.88,25.29a6.65,6.65,0,0,1,0-6.61A6.09,6.09,0,0,1,3.29,16.4a7.11,7.11,0,0,1,3.44-.83,7.2,7.2,0,0,1,2.91.57,5.83,5.83,0,0,1,2.19,1.63L10,19.47A4,4,0,0,0,6.87,18a4.07,4.07,0,0,0-2,.5,3.61,3.61,0,0,0-1.41,1.41,4.4,4.4,0,0,0,0,4.11,3.61,3.61,0,0,0,1.41,1.41,4.18,4.18,0,0,0,2.05.5A4,4,0,0,0,10,24.48l1.84,1.7a5.74,5.74,0,0,1-2.2,1.65,7.21,7.21,0,0,1-2.92.56A7.09,7.09,0,0,1,3.29,27.57Z"/><path class="a" d="M14.69,27.56a6.23,6.23,0,0,1-2.43-2.29,6.64,6.64,0,0,1,0-6.57,6.16,6.16,0,0,1,2.43-2.29,7.17,7.17,0,0,1,3.48-.84,7.13,7.13,0,0,1,3.47.84A6.17,6.17,0,0,1,25,22a6.17,6.17,0,0,1-3.31,5.58,7.12,7.12,0,0,1-3.47.83A7.16,7.16,0,0,1,14.69,27.56Zm5.46-2.11A3.62,3.62,0,0,0,21.54,24a4.4,4.4,0,0,0,0-4.11,3.62,3.62,0,0,0-1.39-1.41,4.17,4.17,0,0,0-4,0,3.62,3.62,0,0,0-1.39,1.41,4.4,4.4,0,0,0,0,4.11,3.62,3.62,0,0,0,1.39,1.41,4.17,4.17,0,0,0,4,0Z"/><path class="a" d="M37.16,15.79V28.18H34.8l-6.18-7.52v7.52H25.79V15.79h2.37l6.16,7.52V15.79Z"/><path class="a" d="M40,28a6.69,6.69,0,0,1-2.21-1l1-2.16a6.68,6.68,0,0,0,1.89.94,7.32,7.32,0,0,0,2.2.35,3.52,3.52,0,0,0,1.8-.36,1.1,1.1,0,0,0,.59-1A.92.92,0,0,0,44.9,24a2.53,2.53,0,0,0-.88-.47c-.36-.12-.85-.25-1.46-.39a19.82,19.82,0,0,1-2.32-.67,3.82,3.82,0,0,1-1.55-1.08,2.94,2.94,0,0,1-.65-2,3.42,3.42,0,0,1,.59-1.95,3.8,3.8,0,0,1,1.76-1.39,7,7,0,0,1,2.88-.52,9.51,9.51,0,0,1,2.32.29,6.8,6.8,0,0,1,2,.81l-.89,2.18a6.88,6.88,0,0,0-3.43-1,3.2,3.2,0,0,0-1.78.38,1.19,1.19,0,0,0-.58,1,1,1,0,0,0,.67.95,10,10,0,0,0,2,.61,22,22,0,0,1,2.32.67,3.8,3.8,0,0,1,1.55,1.07,2.84,2.84,0,0,1,.65,2,3.41,3.41,0,0,1-.59,1.94,4,4,0,0,1-1.78,1.39,7.33,7.33,0,0,1-2.89.51A10.3,10.3,0,0,1,40,28Z"/><path class="a" d="M51.13,18.12h-4V15.79H58v2.33H54V28.18H51.13Z"/><path class="a" d="M66.08,28.18l-2.39-3.45H61.05v3.45H58.18V15.79h5.36a7,7,0,0,1,2.86.54,4.12,4.12,0,0,1,2.53,4,4.19,4.19,0,0,1-.67,2.39,4.28,4.28,0,0,1-1.88,1.53l2.78,4Zm-.73-9.5a3,3,0,0,0-2-.56H61.05v4.32h2.33a3,3,0,0,0,2-.56,2,2,0,0,0,.67-1.6A2,2,0,0,0,65.35,18.68Z"/><path class="a" d="M71.24,26.92a5.61,5.61,0,0,1-1.48-4.19V15.79h2.87v6.83q0,3.33,2.76,3.33a2.63,2.63,0,0,0,2.06-.8,3.79,3.79,0,0,0,.7-2.53V15.79H81v6.94a5.65,5.65,0,0,1-1.48,4.19,6.55,6.55,0,0,1-8.27,0Z"/><path class="a" d="M85,27.57a6.15,6.15,0,0,1-2.41-2.28,6.65,6.65,0,0,1,0-6.61A6.15,6.15,0,0,1,85,16.4a7.64,7.64,0,0,1,6.36-.26,5.88,5.88,0,0,1,2.18,1.63l-1.84,1.7A4,4,0,0,0,88.58,18a4.1,4.1,0,0,0-2,.5,3.67,3.67,0,0,0-1.41,1.41,4.47,4.47,0,0,0,0,4.11,3.67,3.67,0,0,0,1.41,1.41,4.2,4.2,0,0,0,2,.5,4,4,0,0,0,3.12-1.47l1.84,1.7a5.78,5.78,0,0,1-2.19,1.65,7.28,7.28,0,0,1-2.92.56A7.1,7.1,0,0,1,85,27.57Z"/><path class="a" d="M96.59,18.12h-4V15.79h10.81v2.33h-4V28.18H96.59Z"/><path class="a" d="M103.64,15.79h2.87V28.18h-2.87Z"/><path class="a" d="M110.64,27.56a6.14,6.14,0,0,1-2.42-2.29,6.57,6.57,0,0,1,0-6.57,6.07,6.07,0,0,1,2.42-2.29,7.22,7.22,0,0,1,3.48-.84,7.1,7.1,0,0,1,3.47.84A6.2,6.2,0,0,1,120.91,22a6.2,6.2,0,0,1-3.32,5.58,7.09,7.09,0,0,1-3.47.83A7.22,7.22,0,0,1,110.64,27.56Zm5.47-2.11A3.69,3.69,0,0,0,117.5,24a4.47,4.47,0,0,0,0-4.11,3.69,3.69,0,0,0-1.39-1.41,4.19,4.19,0,0,0-4,0,3.69,3.69,0,0,0-1.39,1.41,4.4,4.4,0,0,0,0,4.11,3.69,3.69,0,0,0,1.39,1.41,4.19,4.19,0,0,0,4,0Z"/><path class="a" d="M133.11,15.79V28.18h-2.36l-6.18-7.52v7.52h-2.83V15.79h2.37l6.16,7.52V15.79Z"/></svg>