<svg xmlns="http://www.w3.org/2000/svg" viewBox="0 0 220 220"><defs><style>.a{fill:#0d97ff;}.b{opacity:0.13;}.c{fill:#979797;opacity:0.15;}.d{fill:#dbdada;}.e{fill:#fff;}</style></defs><title>svg2home</title><path class="a" d="M220,110a109.76,109.76,0,0,1-5.55,34.57.19.19,0,0,1,0,.1,110,110,0,1,1,2.81-59.3,2.17,2.17,0,0,1,.07.35A109.77,109.77,0,0,1,220,110Z"/><g class="b"><path class="c" d="M217.3,85.72a110.47,110.47,0,0,1-2.85,58.85c-1.06-1.35-2.16-2.66-3.28-3.93-24.57-28-58.47-36.28-79.58-38.61a120,120,0,0,0-19.56-.75l-.41-2.14-1.86-9.68L108.63,53,130.19,40l5.21-3.13.08,0a159.58,159.58,0,0,1,62.11,30.39A161.85,161.85,0,0,1,217.3,85.72Z"/><path class="d" d="M220,110a109.76,109.76,0,0,1-5.55,34.57.19.19,0,0,1,0,.1c-1-1.38-2.14-2.73-3.25-4-23.6-27.88-56.39-37.25-79.64-40.22a159.21,159.21,0,0,0-19.91-1.28c-5.34,0-8.48.32-8.48.32l2.38-57.07L130.19,40l12.52-1.21a173.11,173.11,0,0,1,54.88,28.42,154,154,0,0,1,19.64,18.14,2.17,2.17,0,0,1,.07.35A109.77,109.77,0,0,1,220,110Z"/><path class="e" d="M110,220a109.77,109.77,0,0,1-87.22-43C10.56,118.18,20.1,76.34,53.2,50.32c0,0,31.22-25.28,82.2-13.43,2.39.56,4.83,1.19,7.31,1.92,0,0-12.52,17.76-11.18,61.61l.06,1.61c1,26.35,7,61.89,23.43,108.36A109.47,109.47,0,0,1,110,220Z"/></g></svg>